# xmcd CD database file
#
# Track frame offsets:
#	150
#	13459
#	26525
#	37618
#	51799
#	64867
#	83630
#	99901
#	112816
#	125657
#	137683
#	151509
#	165717
#	194470
#
# Disc length: 2772 seconds
#
# Revision: 0
# Processed by: cddbd v1.5.2PL0 Copyright (c) Steve Scherf et al.
# Submitted via: CDex 1.75
#
DISCID=a70ad20e
DTITLE=Various Artist - Greatest Blues Standards CD 2
DYEAR=2019
DGENRE=Blues
TTITLE0=Dust My Broom - Elmore James
TTITLE1=I'm Your Hoochie Coochie Man - Muddy Waters
TTITLE2=Little Red Rooster - Howlin' Wolf
TTITLE3=I Can't Quit You Baby - Otis Rush
TTITLE4=Catfish Blues - Robert Petway
TTITLE5=Stormy Monday Blues - Bobby Blue Bland
TTITLE6=Ain't Nobody's Business - Jimmy Witherspoon
TTITLE7=Everyday I Have The Blues - B.B. King
TTITLE8=That's All Right - Jimmy Rogers
TTITLE9=How Long Blues - Ray Charles
TTITLE10=Sweet Home Chicago - Robert Johnson
TTITLE11=Blues With A Feeling - Little Walter
TTITLE12=Rock Me Baby - Big Bill Broonzy
TTITLE13=Nobody Knows You When You're Down and Out - Bessie Smith
EXTD=YEAR: 2019
EXTT0=
EXTT1=
EXTT2=
EXTT3=
EXTT4=
EXTT5=
EXTT6=
EXTT7=
EXTT8=
EXTT9=
EXTT10=
EXTT11=
EXTT12=
EXTT13=
PLAYORDER=
